<?xml version="1.0" encoding="UTF-8" standalone="no"?>
<!-- Created with Inkscape (http://www.inkscape.org/) -->

<svg
   version="1.1"
   id="svg1"
   width="764.61237"
   height="447.61072"
   viewBox="0 0 764.61237 447.61072"
   sodipodi:docname="eye-slash.svg"
   inkscape:version="1.3 (0e150ed6c4, 2023-07-21)"
   xmlns:inkscape="http://www.inkscape.org/namespaces/inkscape"
   xmlns:sodipodi="http://sodipodi.sourceforge.net/DTD/sodipodi-0.dtd"
   xmlns="http://www.w3.org/2000/svg"
   xmlns:svg="http://www.w3.org/2000/svg">
  <defs
     id="defs1" />
  <sodipodi:namedview
     id="namedview1"
     pagecolor="#ffffff"
     bordercolor="#000000"
     borderopacity="0.25"
     inkscape:showpageshadow="2"
     inkscape:pageopacity="0.0"
     inkscape:pagecheckerboard="0"
     inkscape:deskcolor="#d1d1d1"
     inkscape:zoom="0.57125155"
     inkscape:cx="380.74295"
     inkscape:cy="174.17896"
     inkscape:window-width="2304"
     inkscape:window-height="669"
     inkscape:window-x="-6"
     inkscape:window-y="1433"
     inkscape:window-maximized="1"
     inkscape:current-layer="g1" />
  <g
     inkscape:groupmode="layer"
     inkscape:label="Image"
     id="g1"
     transform="translate(-21.193813,-9.1946377)">
    <path
       style="fill:#000000"
       d="m 364.80619,455.95879 c -88.7813,-7.17398 -173.98559,-63.6328 -233.42502,-154.67416 -17.26718,-26.44756 -31.37623,-54.91571 -32.307692,-65.18795 -0.72689,-8.01632 0.76892,-13.21218 8.351902,-29.01114 7.23848,-15.08122 19.18834,-36.18564 20.21365,-35.69895 27.11627,12.87163 42.14405,20.39043 42.15421,21.09089 0.007,0.49056 -1.81269,3.78263 -4.04403,7.3157 -2.23133,3.53307 -7.20263,12.43577 -11.04734,19.78378 l -6.99036,13.36002 4.51145,8.98285 c 9.80497,19.52285 25.94391,44.44245 41.2325,63.66571 10.33419,12.9938 36.32401,39.26951 48.35073,48.88261 50.83809,40.63547 107.57298,59.09774 164.57632,53.55527 35.52676,-3.45428 71.82701,-16.65187 102.92758,-37.42109 l 12.71066,-8.48829 23.14272,11.12864 c 12.7285,6.12076 23.36772,11.33324 23.64272,11.5833 1.16715,1.06129 -24.29821,20.44523 -39.21265,29.84822 -12.71002,8.01319 -38.97158,21.05718 -52.1474,25.90137 -35.73785,13.13928 -74.64768,18.4532 -112.63995,15.38322 z m 385.4433,-20.8764 c -2.23118,-0.45461 -34.63118,-15.61258 -72,-33.68437 C 640.88068,383.32622 480.98621,306.00041 322.92846,229.56287 90.125668,116.97826 34.651242,89.784018 30.814265,86.364968 18.312553,75.224938 17.945206,55.713928 30.005215,43.393648 c 6.885845,-7.03446 17.850097,-10.44976 26.949963,-8.39478 2.556942,0.57743 32.57055,14.55814 66.696922,31.06827 34.12637,16.51012 62.34099,30.0184 62.69916,30.0184 0.35816,0 5.44454,-4.32038 11.30307,-9.60085 81.59413,-73.543235 181.06241,-95.6759476 277.65186,-61.78038 15.19337,5.33172 44.38161,20.13552 59.64157,30.24924 49.60755,32.87798 91.78592,79.668742 123.16355,136.631992 15.06331,27.34608 18.52451,38.69447 15.24368,49.98013 -3.40678,11.71891 -18.63847,40.65987 -32.34665,61.46019 -3.42183,5.19218 -5.85777,9.80406 -5.41319,10.24864 0.44458,0.44458 31.35754,15.59334 68.69547,33.66392 37.33794,18.07059 69.56491,34.26417 71.61551,35.98575 2.0506,1.72158 5.11699,5.90905 6.81421,9.30548 2.59654,5.19614 3.08585,7.3254 3.08585,13.42824 0,6.23496 -0.4582,8.13802 -3.26467,13.55941 -6.15646,11.89268 -19.53328,18.46472 -32.29203,15.86509 z M 597.03822,282.58554 c 14.37201,-20.9 28.31158,-47.15684 27.27828,-51.38189 -0.96602,-3.94997 -13.8383,-27.14561 -22.14507,-39.90507 -47.86559,-73.523 -112.49531,-120.096882 -182.98761,-131.865692 -14.88351,-2.48483 -50.46539,-2.48444 -64.83468,7e-4 -40.19539,6.95171 -77.63476,24.2039 -111.31764,51.295562 -5.10283,4.10428 -9.0705,7.79786 -8.81705,8.20795 0.25345,0.41009 13.20277,6.93091 28.77628,14.49071 l 28.31546,13.7451 6,-5.71559 c 34.87103,-33.21806 84.59594,-44.718462 129.16013,-29.87221 20.39951,6.79595 34.72098,15.7079 50.46851,31.40549 19.43748,19.37583 31.27245,42.01282 36.00745,68.87215 1.2485,7.08214 1.70853,26.61533 0.86391,36.68222 l -0.5,5.95943 38.5,18.68048 c 21.175,10.27426 38.77693,18.39252 39.11539,18.04057 0.33847,-0.35195 3.09096,-4.23991 6.11664,-8.63991 z M 465.85164,221.22707 c -4.51618,-26.73085 -20.7786,-48.75634 -44.3552,-60.07376 -10.09986,-4.84821 -17.72065,-6.91922 -28.47622,-7.73864 l -8.28598,-0.63127 0.78598,4.40107 c 1.3334,7.46641 0.7515,21.94327 -1.14037,28.3705 -0.96641,3.28318 -1.37833,6.10192 -0.91538,6.26387 0.46294,0.16194 19.29172,9.23107 41.84172,20.15362 45.91669,22.24068 42.612,21.48638 40.54545,9.25461 z m -94.04545,138.89919 c -22.41697,-2.88591 -44.30232,-11.70328 -62.06045,-25.00349 -8.79362,-6.58611 -23.49653,-22.04027 -29.09296,-30.57947 -6.7344,-10.27556 -12.17323,-21.60981 -15.7748,-32.8739 -4.46178,-13.95449 -7.78216,-37.37745 -5.16239,-36.41719 0.50017,0.18333 12.31267,5.87601 26.25,12.65039 l 25.3406,12.31705 2.99673,6.68295 c 6.25435,13.94769 19.52119,28.19077 33.59324,36.0652 16.98256,9.50308 39.87116,12.4776 58.41003,7.59075 l 6,-1.5816 26.25086,12.72298 26.25087,12.72299 -5.25087,3.81582 c -11.97181,8.69998 -32.2933,17.14084 -49.02381,20.36283 -9.87108,1.90099 -29.73067,2.68286 -38.72705,1.52469 z"
       id="path1" />
  </g>
</svg>
