<svg version="1.1" viewBox="0 0 764.61 447.61" xmlns="http://www.w3.org/2000/svg"><g transform="translate(-21.194 -9.1946)"><path d="m364.81 455.96c-88.781-7.174-173.99-63.633-233.43-154.67-17.267-26.448-31.376-54.916-32.308-65.188-0.72689-8.0163 0.76892-13.212 8.3519-29.011 7.2385-15.081 19.188-36.186 20.214-35.699 27.116 12.872 42.144 20.39 42.154 21.091 7e-3 0.49056-1.8127 3.7826-4.044 7.3157-2.2313 3.5331-7.2026 12.436-11.047 19.784l-6.9904 13.36 4.5114 8.9828c9.805 19.523 25.944 44.442 41.232 63.666 10.334 12.994 36.324 39.27 48.351 48.883 50.838 40.635 107.57 59.098 164.58 53.555 35.527-3.4543 71.827-16.652 102.93-37.421l12.711-8.4883 23.143 11.129c12.728 6.1208 23.368 11.333 23.643 11.583 1.1672 1.0613-24.298 20.445-39.213 29.848-12.71 8.0132-38.972 21.057-52.147 25.901-35.738 13.139-74.648 18.453-112.64 15.383zm385.44-20.876c-2.2312-0.45461-34.631-15.613-72-33.684-37.369-18.072-197.26-95.398-355.32-171.84-232.8-112.58-288.28-139.78-292.11-143.2-12.502-11.14-12.869-30.651-0.80905-42.971 6.8858-7.0345 17.85-10.45 26.95-8.3948 2.5569 0.57743 32.571 14.558 66.697 31.068 34.126 16.51 62.341 30.018 62.699 30.018 0.35816 0 5.4445-4.3204 11.303-9.6008 81.594-73.543 181.06-95.676 277.65-61.78 15.193 5.3317 44.382 20.136 59.642 30.249 49.608 32.878 91.786 79.669 123.16 136.63 15.063 27.346 18.525 38.694 15.244 49.98-3.4068 11.719-18.638 40.66-32.347 61.46-3.4218 5.1922-5.8578 9.8041-5.4132 10.249s31.358 15.593 68.695 33.664c37.338 18.071 69.565 34.264 71.616 35.986s5.117 5.909 6.8142 9.3055c2.5965 5.1961 3.0858 7.3254 3.0858 13.428 0 6.235-0.4582 8.138-3.2647 13.559-6.1565 11.893-19.533 18.465-32.292 15.865zm-153.21-152.5c14.372-20.9 28.312-47.157 27.278-51.382-0.96602-3.95-13.838-27.146-22.145-39.905-47.866-73.523-112.5-120.1-182.99-131.87-14.884-2.4848-50.465-2.4844-64.835 7e-4 -40.195 6.9517-77.635 24.204-111.32 51.296-5.1028 4.1043-9.0705 7.7979-8.817 8.208s13.203 6.9309 28.776 14.491l28.315 13.745 6-5.7156c34.871-33.218 84.596-44.718 129.16-29.872 20.4 6.796 34.721 15.708 50.469 31.405 19.437 19.376 31.272 42.013 36.007 68.872 1.2485 7.0821 1.7085 26.615 0.86391 36.682l-0.5 5.9594 38.5 18.68c21.175 10.274 38.777 18.393 39.115 18.041 0.33847-0.35195 3.091-4.2399 6.1166-8.6399zm-131.19-61.358c-4.5162-26.731-20.779-48.756-44.355-60.074-10.1-4.8482-17.721-6.9192-28.476-7.7386l-8.286-0.63127 0.78598 4.4011c1.3334 7.4664 0.7515 21.943-1.1404 28.37-0.96641 3.2832-1.3783 6.1019-0.91538 6.2639 0.46294 0.16194 19.292 9.2311 41.842 20.154 45.917 22.241 42.612 21.486 40.545 9.2546zm-94.045 138.9c-22.417-2.8859-44.302-11.703-62.06-25.003-8.7936-6.5861-23.497-22.04-29.093-30.579-6.7344-10.276-12.173-21.61-15.775-32.874-4.4618-13.954-7.7822-37.377-5.1624-36.417 0.50017 0.18333 12.313 5.876 26.25 12.65l25.341 12.317 2.9967 6.683c6.2544 13.948 19.521 28.191 33.593 36.065 16.983 9.5031 39.871 12.478 58.41 7.5908l6-1.5816 52.502 25.446-5.2509 3.8158c-11.972 8.7-32.293 17.141-49.024 20.363-9.8711 1.901-29.731 2.6829-38.727 1.5247z" fill="var(--texte)"/></g></svg>