<?xml version="1.0" encoding="UTF-8" standalone="no"?>
<svg
   viewBox="0 0 764.612 447.61099"
   version="1.1"
   id="svg1"
   sodipodi:docname="eye.svg"
   inkscape:version="1.3 (0e150ed6c4, 2023-07-21)"
   width="764.612"
   height="447.61099"
   xmlns:inkscape="http://www.inkscape.org/namespaces/inkscape"
   xmlns:sodipodi="http://sodipodi.sourceforge.net/DTD/sodipodi-0.dtd"
   xmlns="http://www.w3.org/2000/svg"
   xmlns:svg="http://www.w3.org/2000/svg">
  <defs
     id="defs1" />
  <sodipodi:namedview
     id="namedview1"
     pagecolor="#ffffff"
     bordercolor="#000000"
     borderopacity="0.25"
     inkscape:showpageshadow="2"
     inkscape:pageopacity="0.0"
     inkscape:pagecheckerboard="0"
     inkscape:deskcolor="#d1d1d1"
     inkscape:zoom="0.56593095"
     inkscape:cx="154.6125"
     inkscape:cy="116.622"
     inkscape:window-width="1440"
     inkscape:window-height="830"
     inkscape:window-x="-6"
     inkscape:window-y="-6"
     inkscape:window-maximized="1"
     inkscape:current-layer="svg1" />
  <!--! Font Awesome Pro 6.4.2 by @fontawesome - https://fontawesome.com License - https://fontawesome.com/license (Commercial License) Copyright 2023 Fonticons, Inc. -->
  <path
     d="m 382.256,47.805496 c -65.2,0 -118.8,29.6 -159.9,67.700004 -38.5,35.8 -65.1,78.3 -78.7,108.3 13.6,30 40.2,72.5 78.6,108.3 41.2,38.1 94.8,67.7 160,67.7 65.2,0 118.8,-29.6 159.9,-67.7 38.5,-35.8 65.1,-78.3 78.7,-108.3 -13.6,-30 -40.2,-72.5 -78.6,-108.3 -41.2,-38.100004 -94.8,-67.700004 -160,-67.700004 z m -192.6,32.6 c 47.1,-43.8 111.8,-80.59999978 192.6,-80.59999978 80.8,0 145.5,36.79999978 192.6,80.59999978 46.8,43.500004 78.1,95.400004 93,131.100004 3.3,7.9 3.3,16.7 0,24.6 -14.9,35.7 -46.2,87.7 -93,131.1 -47.1,43.8 -111.8,80.6 -192.6,80.6 -80.8,0 -145.5,-36.8 -192.6,-80.6 -46.8,-43.4 -78.1,-95.4 -92.9,-131.1 -3.3,-7.9 -3.3,-16.7 0,-24.6 14.8,-35.7 46.1,-87.7 92.9,-131.100004 z m 192.6,223.400004 c 44.2,0 80,-35.8 80,-80 0,-44.2 -35.8,-80 -80,-80 -0.7,0 -1.3,0 -2,0 1.3,5.1 2,10.5 2,16 0,35.3 -28.7,64 -64,64 -5.5,0 -10.9,-0.7 -16,-2 0,0.7 0,1.3 0,2 0,44.2 35.8,80 80,80 z m 0,-208.000004 a 128,128 0 1 1 0,256.000004 128,128 0 1 1 0,-256.000004 z"
     id="path1"
     style="fill:#2d3142;fill-opacity:1" />
</svg>
