<svg version="1.1" viewBox="0 0 512 512" xmlns="http://www.w3.org/2000/svg"><path d="m245.05 473.05c-7.579-2.0632-13.972-5.8438-21.376-12.64-67.393-61.866-178.1-165.28-184.45-172.3-25.471-28.153-39.182-64.033-39.171-102.5 0.019719-67.89 44.308-125.94 109.21-143.14 15.264-4.0459 27.657-5.4085 43.289-4.7596 37.276 1.5472 69.972 15.784 97.7 42.542l5.6995 5.5001 7.1823-6.7754c20.809-19.63 45.641-32.774 73.23-38.76 14.73-3.1962 43.646-3.1962 58.377 0 32.771 7.1107 61.481 24.123 82.055 48.625 21.961 26.153 33.443 55.593 34.978 89.685 1.8593 41.298-11.718 79.552-38.896 109.59-6.7221 7.4298-59.689 56.916-184.62 172.49-12.805 11.845-28.657 16.414-43.209 12.452z" fill="#6B37D8"/></svg>