<svg version="1.1" viewBox="0 0 512 512" xmlns="http://www.w3.org/2000/svg"><path d="m235.16 470.71c-2.4141-1.2299-7.5793-5.1611-11.478-8.7361-63.267-58.011-178.12-165.29-184.46-172.3-25.471-28.153-39.182-64.033-39.171-102.5 0.019719-67.89 44.308-125.94 109.21-143.14 15.264-4.0459 27.657-5.4085 43.289-4.7596 32.794 1.3612 62.727 12.874 88.17 33.912l7.1703 5.9289-1.3357 3.1814c-0.73461 1.7498-12.241 27.481-25.571 57.181-21.14 47.103-24.293 54.775-24.69 60.07-0.84901 11.334 0.0701 12.553 33.909 44.977l29.987 28.733-4.3204 4.6059c-2.3762 2.5332-12.695 13.158-22.93 23.61-19.846 20.266-21.328 22.474-21.15 31.504 0.0703 3.5545 28.007 133.83 29.753 138.75 0.65332 1.8393-1.4324 1.508-6.3824-1.0139zm40.053-69.392-13.312-60.588 11.309-11.628c6.2197-6.3954 18.066-18.493 26.324-26.883 16.169-16.427 18.821-20.451 18.943-28.745 0.15449-10.544-0.59087-11.482-36.531-46.01-24.239-23.286-32.859-32.157-32.414-33.356 0.3332-0.89863 15.07-34.153 32.749-73.899l32.143-72.265 7.6897-2.4292c15.228-4.8107 24.119-6.0196 43.938-5.9749 15.207 0.0343 20.314 0.43383 28.688 2.2446 32.726 7.0759 61.476 24.111 82.055 48.617 21.961 26.153 33.443 55.593 34.978 89.685 1.8593 41.298-11.718 79.552-38.896 109.59-4.5795 5.0617-46.576 44.617-93.326 87.9s-86.355 79.964-88.012 81.513l-3.0122 2.816z" fill="#6B37D8"/></svg>