<?xml version="1.0" encoding="UTF-8" standalone="no"?>
<!-- Created with Inkscape (http://www.inkscape.org/) -->

<svg
   version="1.1"
   id="svg1"
   width="512"
   height="512"
   viewBox="0 0 512 512"
   sodipodi:docname="heart-crack.svg"
   inkscape:version="1.3 (0e150ed6c4, 2023-07-21)"
   xmlns:inkscape="http://www.inkscape.org/namespaces/inkscape"
   xmlns:sodipodi="http://sodipodi.sourceforge.net/DTD/sodipodi-0.dtd"
   xmlns="http://www.w3.org/2000/svg"
   xmlns:svg="http://www.w3.org/2000/svg">
  <defs
     id="defs1" />
  <sodipodi:namedview
     id="namedview1"
     pagecolor="#ffffff"
     bordercolor="#000000"
     borderopacity="0.25"
     inkscape:showpageshadow="2"
     inkscape:pageopacity="0.0"
     inkscape:pagecheckerboard="0"
     inkscape:deskcolor="#d1d1d1"
     inkscape:zoom="0.90039062"
     inkscape:cx="256"
     inkscape:cy="255.44469"
     inkscape:window-width="1440"
     inkscape:window-height="830"
     inkscape:window-x="-6"
     inkscape:window-y="-6"
     inkscape:window-maximized="1"
     inkscape:current-layer="g1" />
  <g
     inkscape:groupmode="layer"
     inkscape:label="Image"
     id="g1">
    <path
       style="fill:#2d3142;fill-opacity:1"
       d="m 251.5034,473.90095 c -7.63133,-1.08947 -13.76367,-3.36504 -19.65743,-7.29442 C 226.95877,463.34822 55.881851,305.09871 43.136015,292.04612 20.171096,268.52849 5.795221,238.89433 1.4911674,206.20019 -8.515715,130.18665 36.708897,61.275376 109.21403,42.05682 c 15.2638,-4.045894 27.6566,-5.408463 43.28937,-4.759595 37.2762,1.547219 69.972,15.784031 97.69952,42.541541 l 5.69953,5.50013 7.1823,-6.77542 c 20.80926,-19.6304 45.64137,-32.773765 73.23024,-38.759972 14.7305,-3.196208 43.64632,-3.196208 58.37682,0 32.7714,7.110707 61.48062,24.123432 82.05536,48.624982 21.96145,26.152924 33.44326,55.592524 34.97812,89.684614 1.94126,43.11905 -13.31696,83.68459 -42.8545,113.93302 -11.79263,12.07644 -183.38019,170.89282 -190.18875,176.03308 -9.2982,7.01987 -13.09278,7.83268 -27.17864,5.82175 z M 357.7428,330.29936 c 59.09357,-54.90644 81.35649,-76.20475 85.61301,-81.90353 24.50914,-32.81372 27.48497,-80.09099 7.20508,-114.46757 -13.05153,-22.12374 -33.55366,-37.952794 -59.05749,-45.596434 -8.24503,-2.47108 -10.42606,-2.69735 -26,-2.69735 -15.63494,0 -17.72268,0.21867 -26,2.7232 -23.00039,6.9594 -34.87663,15.117024 -54.94159,37.738574 l -12.05841,13.59484 -11.85047,26.60375 c -6.51776,14.63207 -11.69276,26.98203 -11.5,27.44437 0.19276,0.46233 14.86225,14.74191 32.59888,31.73239 34.78668,33.32327 36.49028,35.41363 36.57993,44.88435 0.0937,9.89986 -1.00754,11.52003 -23.21533,34.15463 -11.33716,11.55505 -23.47649,23.9936 -26.9763,27.64122 l -6.3633,6.63204 7.26978,33.13996 c 3.99838,18.22697 7.62208,33.01343 8.05268,32.85878 0.43059,-0.15464 36.72018,-33.67209 80.64353,-74.48322 z M 224.65617,392.75141 C 220.2869,375.3224 212.0034,334.46335 212.0034,330.34064 c 0,-2.97191 0.69841,-7.07651 1.55202,-9.12135 0.99838,-2.39161 9.63544,-11.83011 24.21199,-26.45863 l 22.65995,-22.74075 -3.96198,-4.09275 c -2.17909,-2.25102 -15.73912,-15.3518 -30.1334,-29.11285 -29.72495,-28.41729 -31.01275,-30.18698 -30.03694,-41.27665 0.44035,-5.0044 3.02497,-11.57932 15.11975,-38.46264 8.02374,-17.83452 14.58861,-33.01358 14.58861,-33.73126 0,-1.97433 -12.64455,-14.98681 -20,-20.58197 -8.55026,-6.504024 -24.4015,-14.123644 -35,-16.824334 -10.78861,-2.74914 -28.31483,-3.64067 -38.73888,-1.97059 -40.230967,6.4456 -71.028861,34.391244 -81.397497,73.859114 -1.232013,4.68961 -2.234573,12.57292 -2.577211,20.26505 -1.188102,26.67257 6.205034,50.37533 21.946707,70.36221 4.885729,6.20332 152.210841,144.3006 154.125291,144.47153 0.47212,0.0421 0.60458,-0.93586 0.29436,-2.17336 z"
       id="path1" />
  </g>
</svg>
