<?xml version="1.0" encoding="UTF-8" standalone="no"?>
<!-- Created with Inkscape (http://www.inkscape.org/) -->

<svg
   version="1.1"
   id="svg1"
   width="512"
   height="512"
   viewBox="0 0 512 512"
   sodipodi:docname="heart_full.svg"
   inkscape:version="1.3 (0e150ed6c4, 2023-07-21)"
   xmlns:inkscape="http://www.inkscape.org/namespaces/inkscape"
   xmlns:sodipodi="http://sodipodi.sourceforge.net/DTD/sodipodi-0.dtd"
   xmlns="http://www.w3.org/2000/svg"
   xmlns:svg="http://www.w3.org/2000/svg">
  <defs
     id="defs1" />
  <sodipodi:namedview
     id="namedview1"
     pagecolor="#ffffff"
     bordercolor="#000000"
     borderopacity="0.25"
     inkscape:showpageshadow="2"
     inkscape:pageopacity="0.0"
     inkscape:pagecheckerboard="0"
     inkscape:deskcolor="#d1d1d1"
     inkscape:zoom="0.39705703"
     inkscape:cx="107.03752"
     inkscape:cy="523.85422"
     inkscape:window-width="1440"
     inkscape:window-height="830"
     inkscape:window-x="-6"
     inkscape:window-y="-6"
     inkscape:window-maximized="1"
     inkscape:current-layer="g1" />
  <g
     inkscape:groupmode="layer"
     inkscape:label="Image"
     id="g1">
    <path
       style="fill:#ef8354;fill-opacity:1"
       d="M 245.05347,473.05117 C 237.47452,470.98793 231.08108,467.20734 223.67773,460.4112 156.28463,398.54553 45.576173,295.13176 39.227121,288.11422 13.756223,259.96152 0.0451132,224.08159 0.05628715,185.60998 0.07600568,117.71951 44.363994,59.669338 109.2641,42.466618 c 15.2638,-4.0459 27.6566,-5.40847 43.28937,-4.7596 37.2762,1.54722 69.972,15.78403 97.69952,42.54154 l 5.69953,5.50014 7.1823,-6.77542 c 20.80926,-19.63041 45.64137,-32.77377 73.23024,-38.75998 14.7305,-3.19621 43.64632,-3.19621 58.37682,0 32.7714,7.11071 61.48062,24.12343 82.05536,48.62498 21.96145,26.152922 33.44326,55.592522 34.97812,89.684612 1.85926,41.29751 -11.71786,79.55214 -38.89554,109.59133 -6.72208,7.42985 -59.68918,56.91629 -184.61689,172.48509 -12.80454,11.84529 -28.65691,16.41354 -43.20946,12.45186 z"
       id="path1" />
  </g>
</svg>
