<?xml version="1.0" encoding="UTF-8" standalone="no"?>
<!-- Created with Inkscape (http://www.inkscape.org/) -->

<svg
   version="1.1"
   id="svg1"
   width="512"
   height="512"
   viewBox="0 0 512 512"
   sodipodi:docname="heart-crack_full.svg"
   inkscape:version="1.3 (0e150ed6c4, 2023-07-21)"
   xmlns:inkscape="http://www.inkscape.org/namespaces/inkscape"
   xmlns:sodipodi="http://sodipodi.sourceforge.net/DTD/sodipodi-0.dtd"
   xmlns="http://www.w3.org/2000/svg"
   xmlns:svg="http://www.w3.org/2000/svg">
  <defs
     id="defs1" />
  <sodipodi:namedview
     id="namedview1"
     pagecolor="#ffffff"
     bordercolor="#000000"
     borderopacity="0.25"
     inkscape:showpageshadow="2"
     inkscape:pageopacity="0.0"
     inkscape:pagecheckerboard="0"
     inkscape:deskcolor="#d1d1d1"
     inkscape:zoom="0.31833616"
     inkscape:cx="42.408001"
     inkscape:cy="483.76534"
     inkscape:window-width="1440"
     inkscape:window-height="830"
     inkscape:window-x="-6"
     inkscape:window-y="-6"
     inkscape:window-maximized="1"
     inkscape:current-layer="g1" />
  <g
     inkscape:groupmode="layer"
     inkscape:label="Image"
     id="g1">
    <path
       style="fill:#000000"
       d="m 235.16426,470.70667 c -2.41407,-1.22987 -7.57928,-5.16113 -11.47824,-8.73613 C 160.41857,403.96001 45.566898,296.68085 39.227121,289.67356 13.756223,261.52086 0.04511338,225.64093 0.05628728,187.16932 0.07600588,119.27885 44.363994,61.228676 109.2641,44.025946 c 15.2638,-4.04589 27.6566,-5.40846 43.28937,-4.75959 32.79358,1.36116 62.72706,12.87432 88.17031,33.9125 l 7.17031,5.92889 -1.33566,3.18139 c -0.73461,1.74977 -12.24141,27.481404 -25.57065,57.181404 -21.13979,47.10333 -24.29306,54.77529 -24.68971,60.0704 -0.84901,11.33405 0.0701,12.55315 33.90893,44.97714 l 29.98719,28.73338 -4.32036,4.60587 c -2.3762,2.53323 -12.69475,13.15752 -22.93013,23.60954 -19.84641,20.2665 -21.3285,22.47414 -21.14988,31.50367 0.0703,3.55452 28.00701,133.83488 29.75288,138.75 0.65332,1.83928 -1.43244,1.50795 -6.38244,-1.01387 z m 40.05266,-69.39242 -13.31214,-60.58765 11.30853,-11.62803 c 6.2197,-6.39542 18.06565,-18.49289 26.32435,-26.88328 16.16889,-16.42672 18.82102,-20.45125 18.94255,-28.74475 0.15449,-10.54355 -0.59087,-11.48231 -36.53134,-46.01 -24.23931,-23.28648 -32.85915,-32.15674 -32.41444,-33.35613 0.3332,-0.89863 15.07011,-34.15327 32.7487,-73.89921 l 32.14287,-72.265334 7.68974,-2.42919 c 15.22847,-4.81067 24.11857,-6.0196 43.93773,-5.97494 15.20691,0.0343 20.31358,0.43383 28.68841,2.24463 32.72551,7.07591 61.4763,24.11056 82.05536,48.61725 21.96145,26.152924 33.44326,55.592524 34.97812,89.684614 1.85926,41.29751 -11.71786,79.55214 -38.89554,109.59133 -4.57949,5.06166 -46.57635,44.61653 -93.32635,87.89971 -46.75,43.28318 -86.35549,79.96388 -88.0122,81.51267 l -3.0122,2.81597 z"
       id="path1" />
  </g>
</svg>
