<?xml version="1.0" encoding="UTF-8"?><svg viewBox="0 0 512 512" xmlns="http://www.w3.org/2000/svg"><path d="m251.5 473.9c-7.6313-1.0895-13.764-3.365-19.657-7.2944-4.8872-3.2583-175.96-161.51-188.71-174.56-22.965-23.518-37.341-53.152-41.645-85.846-10.007-76.014 35.218-144.92 107.72-164.14 15.264-4.0459 27.657-5.4085 43.289-4.7596 37.276 1.5472 69.972 15.784 97.7 42.542l5.6995 5.5001 7.1823-6.7754c20.809-19.63 45.641-32.774 73.23-38.76 14.73-3.1962 43.646-3.1962 58.377 0 32.771 7.1107 61.481 24.123 82.055 48.625 21.961 26.153 33.443 55.593 34.978 89.685 1.9413 43.119-13.317 83.685-42.854 113.93-11.793 12.076-183.38 170.89-190.19 176.03-9.2982 7.0199-13.093 7.8327-27.179 5.8218zm106.24-143.6c59.094-54.906 81.356-76.205 85.613-81.904 24.509-32.814 27.485-80.091 7.2051-114.47-13.052-22.124-33.554-37.953-59.057-45.596-8.245-2.4711-10.426-2.6974-26-2.6974-15.635 0-17.723 0.21867-26 2.7232-23 6.9594-34.877 15.117-54.942 37.739l-12.058 13.595-11.85 26.604c-6.5178 14.632-11.693 26.982-11.5 27.444 0.19276 0.46233 14.862 14.742 32.599 31.732 34.787 33.323 36.49 35.414 36.58 44.884 0.0937 9.8999-1.0075 11.52-23.215 34.155-11.337 11.555-23.476 23.994-26.976 27.641l-6.3633 6.632 7.2698 33.14c3.9984 18.227 7.6221 33.013 8.0527 32.859 0.43059-0.15464 36.72-33.672 80.644-74.483zm-133.09 62.452c-4.3693-17.429-12.653-58.288-12.653-62.411 0-2.9719 0.69841-7.0765 1.552-9.1214 0.99838-2.3916 9.6354-11.83 24.212-26.459l22.66-22.741-3.962-4.0928c-2.1791-2.251-15.739-15.352-30.133-29.113-29.725-28.417-31.013-30.187-30.037-41.277 0.44035-5.0044 3.025-11.579 15.12-38.463 8.0237-17.835 14.589-33.014 14.589-33.731 0-1.9743-12.645-14.987-20-20.582-8.5503-6.504-24.402-14.124-35-16.824-10.789-2.7491-28.315-3.6407-38.739-1.9706-40.231 6.4456-71.029 34.391-81.397 73.859-1.232 4.6896-2.2346 12.573-2.5772 20.265-1.1881 26.673 6.205 50.375 21.947 70.362 4.8857 6.2033 152.21 144.3 154.13 144.47 0.47212 0.0421 0.60458-0.93586 0.29436-2.1734z" fill="var(--texte)"/></svg>